inDegrees=no
num_controls=7
num_derivatives=13
num_iterations=158
num_multipliers=7
num_parameters=0
num_slacks=7
num_states=26
objective=0.253377
objective_accelerations=0.000000
objective_balance=0.001808
objective_effort=0.049950
objective_height=0.189209
objective_ligament=0.012410
solver_duration=2112.153988
status=Solve_Succeeded
success=true
DataType=double
version=3
OpenSimVersion=4.5
endheader
time	/jointset/ground_pelvis/pelvis_tilt/value	/jointset/ground_pelvis/pelvis_tx/value	/jointset/ground_pelvis/pelvis_ty/value	/jointset/hip_l/hip_flexion_l/value	/jointset/hip_l/hip_adduction_l/value	/jointset/hip_l/hip_rotation_l/value	/jointset/back/lumbar_extension/value	/jointset/patellofemoral_l/patellar_flexion_l/value	/jointset/knee_l/knee_flexion_l/value	/jointset/knee_l/knee_adduction_l/value	/jointset/knee_l/knee_rotation_l/value	/jointset/ankle_l/ankle_angle_l/value	/jointset/subtalar_l/subtalar_angle_l/value	/jointset/ground_pelvis/pelvis_tilt/speed	/jointset/ground_pelvis/pelvis_tx/speed	/jointset/ground_pelvis/pelvis_ty/speed	/jointset/hip_l/hip_flexion_l/speed	/jointset/hip_l/hip_adduction_l/speed	/jointset/hip_l/hip_rotation_l/speed	/jointset/back/lumbar_extension/speed	/jointset/patellofemoral_l/patellar_flexion_l/speed	/jointset/knee_l/knee_flexion_l/speed	/jointset/knee_l/knee_adduction_l/speed	/jointset/knee_l/knee_rotation_l/speed	/jointset/ankle_l/ankle_angle_l/speed	/jointset/subtalar_l/subtalar_angle_l/speed	/forceset/tau_hip_flexion_l	/forceset/tau_hip_adduction_l	/forceset/tau_hip_rotation_l	/forceset/tau_knee_flexion_l	/forceset/tau_ankle_angle_l	/forceset/tau_subtalar_angle_l	/forceset/tau_lumbar_extension	lambda_cid13_p0	lambda_cid13_p1	lambda_cid13_p2	lambda_cid13_p3	lambda_cid13_p4	lambda_cid13_p5	lambda_cid14_p0	/jointset/ground_pelvis/pelvis_tilt/accel	/jointset/ground_pelvis/pelvis_tx/accel	/jointset/ground_pelvis/pelvis_ty/accel	/jointset/hip_l/hip_flexion_l/accel	/jointset/hip_l/hip_adduction_l/accel	/jointset/hip_l/hip_rotation_l/accel	/jointset/back/lumbar_extension/accel	/jointset/patellofemoral_l/patellar_flexion_l/accel	/jointset/knee_l/knee_flexion_l/accel	/jointset/knee_l/knee_adduction_l/accel	/jointset/knee_l/knee_rotation_l/accel	/jointset/ankle_l/ankle_angle_l/accel	/jointset/subtalar_l/subtalar_angle_l/accel	gamma_cid13_p0	gamma_cid13_p1	gamma_cid13_p2	gamma_cid13_p3	gamma_cid13_p4	gamma_cid13_p5	gamma_cid14_p0
0	0.04756669738512815	0.1082785702629722	0.9028509198760314	0.1266922784136757	-0.3701845857686877	-0.227712949253558	-0.2144969558742783	0.2051545070141891	0.2051545070141877	-0.1745221983231578	-0.1628145342898146	0.09024313228550125	0.07890380464217976	0	0	0	0	0	0	0	0	0	0	0	0	0	0.1897422044637327	-0.1817888315432951	0.06605339990858629	0.2896516863950311	0.1091502759361339	-0.1201251386171236	-0.4495959818829869	91.10260472165845	31.52235005840621	0.05810223053677738	-245.2159086976725	999.2728452144934	109.3803499317324	-26.34601030885706	36.94544985281379	-30.45725519560059	-30.18153406650833	439.6505266219388	74.0498450343219	133.8335326607991	-143.4678083731897	720.5585406340927	720.5585406340587	333.0938703012961	-96.63559789138017	341.3543013528199	180.9935756725539	-0.0003692513798511563	0.01655217730068956	-0.01991112429240883	0.001210144555993059	0.01477005373842052	0.02831840109706873	0.00200242008850234
0.01	0.04843074648492306	0.1068431185089008	0.9013339443413625	0.1479553573680855	-0.3662266320117234	-0.222135507328329	-0.2203030575017919	0.2382558084227481	0.2382558084227503	-0.1579760230482211	-0.1671990226972844	0.1059257444689556	0.08790322950290359	0.1335557105453588	-0.2750219520345011	-0.3280085351068951	4.005310625819544	0.7482008620036233	1.012505391253346	-1.074876872461221	6.158577205939826	6.158577205939714	3.13350560515458	-0.7022809528766167	2.912797706970002	1.722481789853375	0.1902975564038008	-0.1596922217010827	0.05034436082941724	0.2333842942204181	0.07990040946386637	-0.1374780966763207	-0.3949080413838152	76.16719046830366	43.12021846477985	-3.442516904971446	-139.4842864258403	999.9901055829544	132.6631667545313	-26.28833709553132	-4.781107552642124	-23.97237647932586	-34.84851671105864	343.5978027041131	70.38351828161466	72.96050962406289	-76.54610872629338	493.8543651904519	493.854365190457	277.2682302429329	-34.36776329748097	232.527518411773	156.0763032873384	0.0005492302585783788	0.009306878976177343	-0.01075853402899871	0.0004110763043997314	0.006416178820873674	0.01478352285996277	0.001531544806950901
0.02	0.0493620048485645	0.103067904980094	0.8963892827599688	0.2017968370091216	-0.3557510073350787	-0.2088327180372778	-0.2342676242626591	0.3190122928140099	0.3190122928140094	-0.1153369267976539	-0.1740750044958571	0.1439933363306469	0.111767636791283	0.01344185276915934	-0.4679523549470597	-0.6855372093449407	6.515680137325118	1.303534183936532	1.545069473165112	-1.631693026670645	9.531036596540623	9.531036596540597	5.218584195124921	-0.4982986782203759	4.476995935647312	2.972996485531115	0.1908529083438731	-0.1375956118588741	0.03463532175025252	0.1771169020458132	0.05065054299160238	-0.1548310547355209	-0.340220100884644	58.84141254993775	57.36833325209872	-9.915869200209602	5.796637071113888	999.500083040233	183.3006264305164	-25.66668402423596	-13.78846381149778	-14.03894537121212	-36.0855618927384	140.6623037591445	35.47633702017906	37.84527079248301	-39.85566472283048	163.3349775662866	163.3349775662923	123.4084672644485	84.61704761519131	71.63440569428141	86.60015683742694	0.001467711897007914	0.002061580651665122	-0.001605943765588584	-0.0003879919471935962	-0.001937696096673172	0.001248644622856811	0.001060669525399462
0.03	0.04626885962018522	0.09775331242199591	0.8874142735764601	0.275777940732879	-0.3415597848579151	-0.1909707775760087	-0.249408827400893	0.4211567022895188	0.4211567022895192	-0.05883357155063965	-0.1735764583726546	0.1912479199692822	0.1450502559780078	-0.8641520628992494	-0.5908873796182662	-1.131906866691782	8.47595409342183	1.482482703886843	2.094523070454962	-1.108917801319902	10.83864893933523	10.83864893933518	5.882738288295249	0.6479805039272618	4.888120258965277	3.602639160122469	0.2245836585574341	-0.1279731540520196	0.02025248842659207	0.1754370153338786	0.06435747295284329	-0.1257870382695273	-0.279807298874534	61.72136775491766	47.65067364236995	-12.2518926426967	60.91206759517132	999.9801054322065	201.6431241262169	-23.88531381704447	-159.3244240464755	-10.88979140508372	-52.70029580520502	253.233221347822	1.185654244111464	73.80209528873188	141.4885861125217	105.3846773735053	105.3846773734988	8.194307784646552	136.9341015677661	13.34315475451325	38.84748681070804	-0.000363817075276365	-0.002052611682852301	0.005270830666106636	-5.704239325929149e-05	-0.003097690326702087	-0.004144110253096859	-0.0004044026394527272
0.04	0.02748386151473391	0.09131556753918391	0.8732180421895734	0.3752664399801827	-0.3271627682289177	-0.1655529629235423	-0.2506933842959201	0.5345592981404644	0.534559298140463	-0.001633589883655957	-0.1601549708173324	0.2401120886618891	0.1821695347187899	-3.12492872264618	-0.6925828198898412	-1.729781650020552	11.61715924203403	1.344693014303331	3.056244311404649	1.139636221970647	11.78267387162812	11.78267387162807	5.357909479118447	2.086289608203544	4.798912946441611	3.74032839634256	0.2583144087709989	-0.1183506962451661	0.005869655102936474	0.1737571286219488	0.07806440291408637	-0.09674302180353428	-0.2193944968644235	62.45948668384855	37.2862041050134	-13.31523886716246	97.33399424184071	938.7860859880194	207.4369936459926	-20.50570929501229	-290.4250126272021	-9.791028491285857	-66.38658708912426	376.8485422622421	-27.87130488658542	120.2987995244504	305.3000948651308	90.61749546594166	90.61749546595549	-114.3881132049774	143.0230320409201	-28.43192147404489	-11.79053083682548	-0.002252047297266084	-0.006102245130978081	0.01210068106003454	0.0002972064968714598	-0.004109357119874962	-0.009368986296861823	-0.001889973709115242
0.05	-0.01581457689219209	0.08396806063611859	0.8530107823501928	0.5059763874020198	-0.3157388694104187	-0.1291001148522394	-0.2265909378300903	0.654733217525772	0.6547332175257676	0.04336605963701742	-0.1333231997985821	0.2856251857957854	0.2175865768939111	-5.368739236223351	-0.7742586784149806	-2.273570013498453	14.27435486910726	0.9321307135926062	4.173097205955845	3.509637295100368	12.11839849276155	12.11839849276163	3.572773625533652	3.100928286408371	4.265711746242194	3.280016478850705	0.2210910601599836	-0.08018181306249808	-0.007808046584342383	0.09853046790514954	0.05605076869763147	-0.07085937127497299	-0.1786919447413733	36.03537335111933	31.97334115028925	-13.97121649814093	112.203641029645	572.6246409114166	169.786160303465	-15.47268915150835	-166.6921419547639	-6.894578270353571	-43.48996183272548	172.2835659775448	-50.39822739311126	96.27080675849504	177.1677471227152	-14.61678210714464	-14.61678210713315	-221.2678283043795	55.81324177932601	-72.10977460625293	-73.06514301816421	-0.001630768901012519	-0.004517073645926249	0.007810229107310929	0.000122985985294923	-0.002730495879295296	-0.005612659583228744	-0.001381245806701284
